<?xml version="1.0" standalone="no"?>
<!DOCTYPE svg PUBLIC "-//W3C//DTD SVG 20010904//EN"
 "http://www.w3.org/TR/2001/REC-SVG-20010904/DTD/svg10.dtd">
<svg version="1.0" xmlns="http://www.w3.org/2000/svg"
 width="877.000000pt" height="193.000000pt" viewBox="0 0 877.000000 193.000000"
 preserveAspectRatio="xMidYMid meet">

<g transform="translate(0.000000,193.000000) scale(0.100000,-0.100000)"
fill="#000000" stroke="none">
<path d="M0 965 l0 -965 950 0 950 0 0 965 0 965 -950 0 -950 0 0 -965z m1020
540 c63 -60 57 -161 -12 -213 -16 -12 -18 -38 -18 -283 l0 -269 90 0 90 0 0
-65 0 -65 85 0 85 0 0 -100 0 -100 -420 0 -420 0 0 100 0 100 85 0 85 0 0 65
0 65 90 0 90 0 0 275 c0 260 -1 275 -19 285 -11 5 -27 29 -36 53 -21 55 -9
111 32 149 37 34 49 38 111 34 42 -2 59 -9 82 -31z"/>
<path d="M2120 965 l0 -965 3325 0 3325 0 0 965 0 965 -3325 0 -3325 0 0 -965z
m1791 180 c101 -140 186 -254 189 -254 3 0 87 115 188 256 l182 256 0 -421 0
-422 -50 0 -51 0 3 270 c2 149 0 270 -3 270 -3 0 -10 -9 -15 -19 -14 -31 -248
-361 -256 -361 -8 0 -163 210 -226 307 -26 39 -49 72 -52 72 -3 1 -4 -120 -2
-269 l3 -270 -50 0 -51 0 0 420 c0 231 2 420 4 420 2 0 86 -115 187 -255z
m2412 212 c39 -20 83 -44 96 -55 23 -19 24 -22 13 -77 -7 -32 -15 -61 -18 -64
-3 -3 -15 6 -26 22 -31 43 -101 86 -168 103 -173 44 -340 -58 -386 -237 -37
-146 38 -310 171 -373 86 -41 222 -39 294 5 l31 19 0 100 0 100 -115 0 -115 0
0 50 0 50 163 -2 162 -3 3 -176 c3 -199 7 -187 -85 -234 -75 -37 -195 -53
-275 -36 -93 19 -164 57 -227 120 -167 167 -169 429 -6 596 96 99 195 138 333
131 69 -3 93 -9 155 -39z m845 -253 c151 -162 278 -294 283 -294 5 0 9 121 9
286 l0 285 48 -3 47 -3 3 -305 c2 -168 0 -357 -4 -420 l-6 -115 -57 62 c-202
221 -497 533 -503 533 -4 0 -8 -128 -8 -285 l0 -285 -50 0 -50 0 0 420 c0 231
3 420 8 419 4 0 130 -133 280 -295z m-4102 271 c19 -8 48 -24 63 -35 l29 -20
-15 -61 -16 -60 -36 34 c-54 52 -96 70 -150 64 -92 -10 -133 -107 -75 -176 14
-17 71 -54 126 -83 107 -55 162 -100 184 -154 19 -44 18 -146 -2 -192 -35 -85
-127 -142 -229 -142 -79 0 -123 13 -182 54 -52 37 -55 46 -33 125 l11 42 41
-46 c51 -58 89 -78 153 -79 96 -1 161 64 152 152 -6 59 -38 89 -160 154 -122
64 -149 86 -176 141 -50 102 -2 230 104 278 50 23 161 25 211 4z m414 -405 l0
-410 -55 0 -55 0 0 410 0 410 55 0 55 0 0 -410z m1550 389 c55 -25 87 -53 110
-99 44 -88 31 -178 -34 -243 -22 -23 -50 -47 -60 -53 -20 -11 -4 -38 211 -341
l45 -63 -64 0 -63 0 -90 132 c-49 72 -109 158 -133 190 -43 59 -43 59 -90 56
l-47 -3 -3 -187 -2 -188 -50 0 -50 0 0 410 0 410 138 0 c116 0 144 -4 182 -21z
m500 -389 l0 -410 -50 0 -50 0 0 410 0 410 50 0 50 0 0 -410z m2362 48 l3
-363 143 -3 143 -3 -3 -42 -3 -42 -197 -3 -198 -2 0 410 0 410 55 0 55 0 2
-362z m-1200 -345 c24 -22 24 -77 -2 -103 -43 -43 -120 -11 -120 50 0 59 77
93 122 53z"/>
<path d="M4817 1283 c-4 -3 -7 -62 -7 -130 l0 -123 81 0 c102 0 140 20 164 85
29 75 -8 142 -90 164 -44 12 -138 15 -148 4z"/>
</g>
</svg>
